<?xml version="1.0" standalone="no"?>
<!DOCTYPE svg PUBLIC "-//W3C//DTD SVG 20010904//EN"
 "http://www.w3.org/TR/2001/REC-SVG-20010904/DTD/svg10.dtd">
<svg version="1.0" xmlns="http://www.w3.org/2000/svg"
 width="210.000000pt" height="229.000000pt" viewBox="0 0 210.000000 229.000000"
 preserveAspectRatio="xMidYMid meet">

<g transform="translate(0.000000,229.000000) scale(0.100000,-0.100000)"
fill="#000000" stroke="none">
<path d="M1190 2280 c-25 -17 -82 -29 -199 -45 -136 -18 -153 -22 -218 -53
-71 -33 -138 -94 -174 -157 -24 -43 -46 -63 -124 -115 -234 -153 -397 -403
-451 -687 -21 -114 -14 -325 14 -428 65 -232 187 -426 353 -558 81 -65 216
-143 299 -172 l40 -14 0 200 0 200 30 -16 30 -16 0 -193 0 -194 53 -12 c80
-19 265 -24 359 -11 96 14 230 57 320 102 286 144 488 412 560 744 7 35 12
119 12 200 -1 117 -6 156 -28 240 -47 181 -167 388 -292 507 -48 44 -187 144
-214 153 -11 3 -34 34 -52 67 -23 44 -50 75 -96 111 -61 48 -63 52 -57 85 6
33 5 34 -18 28 -14 -3 -33 -9 -43 -13 -13 -5 -16 -3 -11 10 9 25 -9 30 -43 12
l-31 -16 7 26 c7 26 -1 31 -26 15z m140 -327 c20 -21 57 -55 83 -76 58 -47 73
-76 87 -163 18 -121 19 -123 54 -138 60 -25 76 -57 76 -155 0 -97 -20 -146
-64 -157 -21 -5 -27 -15 -36 -58 -25 -123 -109 -243 -217 -313 l-53 -34 0
-115 c0 -128 -10 -162 -63 -214 -98 -96 -259 -71 -327 50 -22 40 -25 59 -28
165 l-4 120 -59 38 c-98 63 -174 175 -201 295 -9 42 -17 56 -39 68 -50 25 -59
49 -59 155 0 88 2 98 25 123 13 14 35 30 48 35 20 8 25 19 31 60 4 28 16 80
27 115 16 55 31 76 97 145 l77 81 215 3 c118 1 233 3 255 5 34 2 44 -3 75 -35z
m49 -1699 c1 -136 -2 -164 -15 -175 -11 -9 -20 -10 -32 -2 -14 9 -17 33 -20
159 -1 82 -1 158 2 169 7 27 49 46 58 25 4 -8 7 -88 7 -176z"/>
<path d="M758 1658 c-37 -10 -88 -49 -88 -67 0 -6 16 -3 36 5 21 9 77 18 125
21 71 5 87 9 78 19 -8 10 -103 38 -112 33 -1 -1 -19 -5 -39 -11z"/>
<path d="M1265 1661 c-16 -4 -41 -14 -55 -22 -23 -13 -20 -14 61 -20 47 -4
103 -12 124 -18 44 -12 53 -8 35 14 -31 37 -110 59 -165 46z"/>
<path d="M736 1489 c-39 -31 -32 -39 19 -20 41 15 49 15 90 0 51 -19 58 -11
19 20 -16 13 -41 21 -64 21 -23 0 -48 -8 -64 -21z"/>
<path d="M1255 1498 c-19 -11 -46 -40 -41 -45 1 -2 21 5 44 14 42 16 63 14
130 -14 11 -4 11 -2 1 15 -24 39 -92 54 -134 30z"/>
<path d="M893 1144 c-11 -30 33 -102 78 -124 96 -49 205 -9 237 87 13 40 -3
55 -24 24 -14 -19 -25 -21 -124 -21 -85 0 -112 3 -124 16 -9 8 -16 20 -16 25
0 15 -20 10 -27 -7z"/>
</g>
</svg>
